<?xml version="1.0" encoding="UTF-8" standalone="no" ?>
<!DOCTYPE svg PUBLIC "-//W3C//DTD SVG 1.1//EN" "http://www.w3.org/Graphics/SVG/1.1/DTD/svg11.dtd">
<svg xmlns="http://www.w3.org/2000/svg" xmlns:xlink="http://www.w3.org/1999/xlink" version="1.1" width="40" height="40" viewBox="0 0 40 40" xml:space="preserve">
<desc>Created with Fabric.js 5.3.0</desc>
<defs>
</defs>
<g transform="matrix(0.8532915082 0 0 0.8532914652 20 20)" id="TZ3hE4v0b7pC2GRdUGhVo"  >
<path style="stroke: rgb(93,98,63); stroke-width: 0; stroke-dasharray: none; stroke-linecap: butt; stroke-dashoffset: 0; stroke-linejoin: miter; stroke-miterlimit: 4; fill: rgb(167,77,234); fill-rule: nonzero; opacity: 1;"  transform=" translate(-15.1041686813, -18.7509187614)" d="M 0 0.00184 L 10.41667 0.00184 L 10.41667 37.50184 L 0 37.50184 z M 14.58342 0 L 19.79179 0 L 19.79179 0.00184 L 19.79167 0.00184 L 19.79167 5.17561 C 19.77404 2.3156499999999998 17.44751 0 14.58342 0 z M 19.79163 27.08517 L 14.341440000000002 27.08517 C 14.375570000000002 27.084870000000002 14.409630000000002 27.08425 14.443610000000001 27.08333 C 14.490010000000002 27.08455 14.536570000000001 27.08517 14.583260000000001 27.08517 C 17.458270000000002 27.08517 19.791610000000002 24.75183 19.791610000000002 21.876820000000002 C 19.791610000000002 21.82984 19.79099 21.783 19.78975 21.736320000000003 C 19.79072 21.700360000000003 19.79135 21.664310000000004 19.79162 21.628180000000004 z M 30.20834 24.86456 L 30.20833 21.62818 C 30.20806 21.66431 30.20743 21.70036 30.20646 21.73632 C 30.2077 21.782999999999998 30.20832 21.82984 30.20832 21.87682 C 30.20832 24.70509 27.95022 27.009159999999998 25.13975 27.083329999999997 C 25.13972 27.083329999999997 24.86036 27.083329999999997 24.860329999999998 27.083329999999997 C 24.8603 27.083329999999997 24.860269999999996 27.083329999999997 24.860239999999997 27.083329999999997 L 19.791839999999997 27.083329999999997 L 19.791839999999997 0.0018399999999978434 C 19.791869999999996 0.0018399999999978434 24.860459999999996 0.0018399999999978434 24.86049 0.0018399999999978434 C 24.860519999999998 0.0018399999999978434 24.86055 0.0018399999999978434 24.86058 0.0018399999999978434 L 25.13991 0.0018399999999978434 C 27.93756 0.07566999999999785 30.18786 2.359099999999998 30.20834 5.169659999999998 L 30.20834 5.2471099999999975 C 30.20809 5.281099999999998 30.20752 5.315019999999998 30.20662 5.348849999999998 C 30.207440000000002 5.379249999999998 30.20802 5.409719999999998 30.20834 5.4402399999999975 z" stroke-linecap="round" />
</g>
</svg>